<svg xmlns="http://www.w3.org/2000/svg" viewBox="0 0 182.88 58.8"><defs><style>.cls-1,.cls-10{isolation:isolate;}.cls-2{fill:#d5b942;}.cls-3{fill:#0071bc;}.cls-4{fill:none;}.cls-10,.cls-5{fill:#ac7239;}.cls-6{fill:#754c24;}.cls-7{fill:#fff;}.cls-8{fill:#cdaa6d;}.cls-9{fill:#603813;}.cls-10{opacity:0.6;mix-blend-mode:multiply;}.cls-11{fill:#c7b299;stroke:#c7b299;stroke-miterlimit:10;}</style></defs><title>Logo_TextAsset 2</title><g class="cls-1"><g id="Layer_2" data-name="Layer 2"><g id="Layer_1-2" data-name="Layer 1"><g class="cls-1"><path class="cls-2" d="M74.34,38.8H67v-2h2.5V22H65.82v2.91h-1.9V20H77.45v4.91h-1.9V22H71.84V36.79h2.51Z"/><path class="cls-2" d="M80,22.51H91.88v4.91h-2V24.51H84v5.14h5.87v2H84v5.14h5.87V33.89h2V38.8H80v-2h1.75V24.51H80Z"/><path class="cls-2" d="M104.67,38.8v-2h1.65l-1.08-3.11H99L97.9,36.79h1.68v2H94.26v-2h1.33l4.23-12.28H98.78v-2h6.69v2h-1.08l4.24,12.28H110v2Zm-2.56-14.21-2.46,7.09h4.91Z"/><path class="cls-2" d="M121.88,32.88h2V36l-2.61,2.76H115L112.36,36V25.26L115,22.51h6.31l2.61,2.76v3.16h-2V26.29l-1.58-1.63H116L114.66,26v9.32l1.28,1.33h4.34L121.88,35Z"/><path class="cls-2" d="M127.4,22.51h5.81v2h-1.75v5.14h7.72V24.51h-1.75v-2h5.81v2h-1.75V36.79h1.75v2h-5.81v-2h1.75V31.66h-7.72v5.14h1.75v2H127.4v-2h1.75V24.51H127.4Z"/><path class="cls-2" d="M147.25,20h5.11l4.74,13.93L161.83,20h5.12v2h-1.76V36.79h1.76v2h-5.82v-2h1.76V23.33L158.2,36.79H156l-4.69-13.46V36.79h1.75v2h-5.81v-2H149V22h-1.75Z"/><path class="cls-2" d="M171,22.51h11.93v4.91h-2V24.51H175v5.14h5.86v2H175v5.14h5.86V33.89h2V38.8H171v-2h1.75V24.51H171Z"/></g><path class="cls-3" d="M58.8,29.4A29.43,29.43,0,0,1,33.5,58.5a27.28,27.28,0,0,1-4.1.3A29.4,29.4,0,1,1,58.2,23.7,26.9,26.9,0,0,1,58.8,29.4Z"/><path class="cls-4" d="M58.8,29.4A29.43,29.43,0,0,1,33.5,58.5L7,31.8l40.1-19,11.1,11A25.3,25.3,0,0,1,58.8,29.4Z"/><circle class="cls-5" cx="14.2" cy="17.6" r="5.8"/><circle class="cls-5" cx="43.8" cy="17.4" r="5.8"/><circle class="cls-6" cx="41.7" cy="19.5" r="3.7"/><circle class="cls-6" cx="16.2" cy="19.5" r="3.7"/><path class="cls-5" d="M51.8,31.8S41.9,47.2,29.6,47.2,7,31.8,7,31.8s9.8-18,22.2-18S51.8,31.8,51.8,31.8Z"/><circle cx="22.8" cy="25.3" r="2.2"/><circle class="cls-7" cx="23.2" cy="24.6" r="1.1"/><path class="cls-8" d="M40.5,36.5s-4.9,7.7-11,7.7-11.2-7.7-11.2-7.7,4.9-8.9,11-8.9S40.5,36.5,40.5,36.5Z"/><circle cx="36" cy="25.3" r="2.2"/><circle class="cls-7" cx="35.5" cy="24.6" r="1.1"/><path class="cls-9" d="M29.2,34.4c-3.4,0-6.1,1-6.1,2.3s2.7,3.6,6.1,3.6,6.1-2.4,6.1-3.6S32.5,34.4,29.2,34.4Z"/><path class="cls-9" d="M29.2,42c-2.7,0-5.6-.8-5.9-2.3a.55.55,0,0,1,.3-.5.55.55,0,0,1,.5.3c.2.8,2.3,1.7,5.1,1.7,3.2,0,5.1-1,5.1-1.8a.4.4,0,0,1,.8,0C35.1,40.6,33,42,29.2,42Z"/><path class="cls-10" d="M45.4,23a5.81,5.81,0,0,0-1.6-11.4,5.91,5.91,0,0,0-5.8,5,17.35,17.35,0,0,0-8.7-2.9V47.1h.2c12.4,0,22.2-15.4,22.2-15.4A53,53,0,0,0,45.4,23Z"/><path d="M43.2,20.8H33.8A2.89,2.89,0,0,0,31,23.3H27.7a2.82,2.82,0,0,0-2.8-2.5H15.5a2.86,2.86,0,0,0-2.8,2.8v4.6A2.86,2.86,0,0,0,15.5,31h5a7.24,7.24,0,0,0,7.2-6.3H31a7.51,7.51,0,0,0,2,4.2A7.11,7.11,0,0,0,38.1,31h5a2.86,2.86,0,0,0,2.8-2.8V23.6A2.65,2.65,0,0,0,43.2,20.8Zm-17,3a5.59,5.59,0,0,1-5.6,5.6h-5a1.22,1.22,0,0,1-1.2-1.2V23.6a1.22,1.22,0,0,1,1.2-1.2H25a1.22,1.22,0,0,1,1.2,1.2Zm18.2,4.4a1.22,1.22,0,0,1-1.2,1.2h-5a5.61,5.61,0,0,1-4-1.7,5.44,5.44,0,0,1-1.6-3.9v-.2a1.22,1.22,0,0,1,1.2-1.2h9.4a1.22,1.22,0,0,1,1.2,1.2Z"/><path class="cls-11" d="M30.8,23.7v.5a.68.68,0,0,1-.7.7H28.7a.68.68,0,0,1-.7-.7v-.5a.68.68,0,0,1,.7-.7H30A.67.67,0,0,1,30.8,23.7Z"/></g></g></g></svg>